<?xml version="1.0" standalone="no"?>
<!DOCTYPE svg PUBLIC "-//W3C//DTD SVG 1.1//EN" "http://www.w3.org/Graphics/SVG/1.1/DTD/svg11.dtd">
<svg xmlns="http://www.w3.org/2000/svg" viewBox="0 0 806.96 284.5" width="806.9600219726562" height="284.5"><defs><style>.d{fill:#ecce2e;}</style></defs><g id="a"/><g id="b"><g id="c"><g><g><g><path class="d" d="M43.54,89.07c14.35,0,32.09,5.19,32.09,19.29,0,6.93-4.07,10.84-10.85,10.84-10.48,0-10.19-10.09-22.29-10.09-8.29,0-14.47,6.93-14.47,23.2s6.48,23.2,14.47,23.2c12.18,0,12.4-11.45,23.04-11.45,7.09,0,11.45,4.22,11.45,11.45,0,14.4-18.99,20.04-34.65,20.04C13.56,175.54,0,158.67,0,132.46c0-24.1,15.06-43.39,43.54-43.39Z"/><path class="d" d="M123.69,89.07c26.66,0,41.13,19.73,41.13,37.36,0,8.44-2.72,13.25-12.36,13.25h-44.43c1.05,9.8,7.38,16.12,16.87,16.12,11.35,0,12.57-9.04,21.84-9.04,6.18,0,11.3,5.13,11.3,11.6,0,12.28-16.12,17.17-30.89,17.17-28.46,0-45.95-16.73-45.95-43.09,0-25.01,16.27-43.39,42.49-43.39Zm14.16,34.2c-.45-9.64-6.18-15.67-14.61-15.67s-14.02,6.03-15.07,15.67h29.68Z"/><path class="d" d="M173.74,102.93c0-7.08,5.87-12.96,12.96-12.96s13.1,5.88,13.1,12.96v2.11c4.07-7.98,12.5-15.52,26.52-15.52,20.94,0,28.92,13.11,28.92,31.93v39.02c0,7.68-6.33,14.01-14.01,14.01s-14.01-6.33-14.01-14.01v-34.65c0-12.65-7.09-15.07-11.9-15.07-5.72,0-13.56,2.86-13.56,18.53v31.18c0,7.68-6.33,14.01-14.01,14.01s-14.01-6.33-14.01-14.01v-57.55Z"/><path class="d" d="M268.45,91.18h5.12l.61-11.15c.31-6.63,6.02-12.05,12.8-12.05s12.81,5.73,12.81,12.81v10.39h8.89c5.12,0,9.19,4.22,9.19,9.19s-4.07,9.34-9.19,9.34h-8.28v33.59c0,8.59,4.75,10.33,8.13,11.3,6.33,1.81,10.85,3.77,10.85,9.04,0,11.15-10.94,11.45-20.49,11.45-19.73,0-26.52-9.94-26.36-29.38l.15-36.01h-4.21c-5.13,0-9.19-4.22-9.19-9.19s4.07-9.34,9.19-9.34Z"/><path class="d" d="M326.46,102.93c0-7.08,5.87-12.96,12.96-12.96s13.1,5.88,13.1,12.96v3.62h.6c3.01-7.23,7.07-16.57,15.97-16.57,10.09,0,13.1,7.38,13.1,12.2,0,5.72-4.37,11.9-11.75,11.9-12.5,0-15.97,10.82-15.97,21.69v24.71c0,7.68-6.33,14.01-14.01,14.01s-14.01-6.33-14.01-14.01v-57.55Z"/><path class="d" d="M426.12,123.57h10.24c0-8.74-.9-14.62-11.45-14.62-12.8,0-14.69,9.49-23.95,9.49-6.63,0-12.05-4.22-12.05-11,0-14.42,21.91-18.38,36.31-18.38,23.65,0,38.12,9.04,38.12,34.2v37.81c0,7.23-5.58,13.41-12.96,13.41-6.63,0-12.05-4.82-12.96-11.15-6.48,8.89-14.92,11.9-25.77,11.9-15.21,0-28.02-8.89-28.02-25,0-23.81,23.81-26.67,42.49-26.67Zm-5.27,33.75c10.24,0,15.66-7.83,15.66-17.48v-1.36h-8.89c-6.92,0-16.57,1.2-16.57,10.09,0,5.72,4.37,8.74,9.79,8.74Z"/><path class="d" d="M477.17,68.88c0-7.68,6.33-14.01,14.01-14.01s14.01,6.33,14.01,14.01v91.6c0,7.68-6.33,14.01-14.01,14.01s-14.01-6.33-14.01-14.01V68.88Z"/></g><g><path class="d" d="M.14,207.58c0-4.25,3.49-7.74,7.74-7.74s7.73,3.49,7.73,7.74v18.81c1.92-3.5,5.66-7.41,13.16-7.41,12.82,0,18.73,10.32,18.73,22.72,0,15.32-8.58,24.56-19.57,24.56-8.24,0-11.65-3.58-13.57-5.91-.66,3.16-3.66,5.58-7.16,5.58-3.91,0-7.07-3.16-7.07-7.08v-51.28Zm23.39,48.29c4.49,0,8.4-3.91,8.4-13.32s-4-12.74-8.24-12.74c-4.91,0-8.48,3.83-8.48,12.74,0,9.91,3.82,13.32,8.32,13.32Z"/><path class="d" d="M74.26,237.8h5.66c0-4.83-.51-8.08-6.33-8.08-7.08,0-8.12,5.25-13.24,5.25-3.66,0-6.66-2.33-6.66-6.08,0-7.96,12.11-10.16,20.06-10.16,13.07,0,21.06,5,21.06,18.9v20.89c0,4-3.08,7.41-7.15,7.41-3.66,0-6.66-2.67-7.17-6.16-3.58,4.91-8.24,6.58-14.23,6.58-8.41,0-15.49-4.91-15.49-13.82,0-13.15,13.16-14.74,23.48-14.74Zm-2.91,18.65c5.66,0,8.66-4.33,8.66-9.66v-.75h-4.92c-3.83,0-9.15,.66-9.15,5.58,0,3.16,2.41,4.83,5.41,4.83Z"/><path class="d" d="M124.39,218.73c7.93,0,17.73,2.87,17.73,10.66,0,3.83-2.25,6-6,6-5.79,0-5.63-5.58-12.32-5.58-4.58,0-8,3.83-8,12.82s3.59,12.82,8,12.82c6.73,0,6.86-6.33,12.74-6.33,3.91,0,6.33,2.33,6.33,6.33,0,7.96-10.5,11.07-19.14,11.07-15.91,0-23.39-9.32-23.39-23.81,0-13.32,8.32-23.98,24.06-23.98Z"/><path class="d" d="M148.73,207.49c0-4.24,3.42-7.66,7.74-7.66s7.67,3.41,7.67,7.66v28.72l12.56-14.82c1.16-1.42,2.91-2.17,4.83-2.17,3.42,0,6.25,2.83,6.25,6.25,0,1.67-.66,3.08-1.66,4.24l-7.08,7.83,10.74,17.32c.66,1.08,1.08,2.41,1.08,3.83,0,4-3.25,7.25-7.25,7.25-2.66,0-4.99-1.42-6.24-3.5l-9.23-15.24-4,4.49v6.58c0,4.25-3.42,7.66-7.74,7.66s-7.67-3.42-7.67-7.66v-50.78Z"/><path class="d" d="M195.4,226.31c0-3.92,3.17-7.08,7.08-7.08s7.17,3.16,7.17,7.08v.5c3.16-4.33,6.99-7.83,14.81-7.83,12.4,0,18.31,10.32,18.31,22.72,0,15.32-8.74,24.56-20.73,24.56-6,0-9.49-2.75-11.16-4.25v14.74c0,4.24-3.5,7.74-7.74,7.74s-7.75-3.5-7.75-7.74v-50.45Zm23.4,29.55c4.49,0,8.41-3.91,8.41-13.32s-3.84-12.74-8.08-12.74c-4.91,0-8.66,3.83-8.66,12.74,0,9.91,3.84,13.32,8.33,13.32Z"/><path class="d" d="M269.52,237.8h5.66c0-4.83-.5-8.08-6.33-8.08-7.07,0-8.12,5.25-13.24,5.25-3.66,0-6.66-2.33-6.66-6.08,0-7.96,12.11-10.16,20.06-10.16,13.07,0,21.07,5,21.07,18.9v20.89c0,4-3.08,7.41-7.17,7.41-3.66,0-6.66-2.67-7.15-6.16-3.58,4.91-8.25,6.58-14.24,6.58-8.4,0-15.48-4.91-15.48-13.82,0-13.15,13.15-14.74,23.47-14.74Zm-2.91,18.65c5.66,0,8.66-4.33,8.66-9.66v-.75h-4.91c-3.84,0-9.16,.66-9.16,5.58,0,3.16,2.41,4.83,5.41,4.83Z"/><path class="d" d="M319.65,218.73c7.93,0,17.74,2.87,17.74,10.66,0,3.83-2.25,6-6,6-5.79,0-5.63-5.58-12.32-5.58-4.58,0-7.99,3.83-7.99,12.82s3.58,12.82,7.99,12.82c6.73,0,6.85-6.33,12.74-6.33,3.91,0,6.33,2.33,6.33,6.33,0,7.96-10.5,11.07-19.15,11.07-15.9,0-23.39-9.32-23.39-23.81,0-13.32,8.32-23.98,24.06-23.98Z"/><path class="d" d="M343.99,207.49c0-4.24,3.41-7.66,7.74-7.66s7.66,3.41,7.66,7.66v28.72l12.56-14.82c1.17-1.42,2.92-2.17,4.83-2.17,3.42,0,6.24,2.83,6.24,6.25,0,1.67-.66,3.08-1.66,4.24l-7.08,7.83,10.74,17.32c.67,1.08,1.08,2.41,1.08,3.83,0,4-3.24,7.25-7.24,7.25-2.67,0-5-1.42-6.25-3.5l-9.24-15.24-4,4.49v6.58c0,4.25-3.42,7.66-7.75,7.66s-7.66-3.42-7.66-7.66v-50.78Z"/><path class="d" d="M410.95,218.73c14.74,0,22.73,10.91,22.73,20.65,0,4.66-1.5,7.33-6.83,7.33h-24.56c.58,5.41,4.08,8.91,9.33,8.91,6.27,0,6.95-5,12.07-5,3.41,0,6.24,2.83,6.24,6.41,0,6.79-8.91,9.49-17.06,9.49-15.74,0-25.39-9.24-25.39-23.81s8.99-23.98,23.48-23.98Zm7.82,18.9c-.25-5.33-3.4-8.66-8.06-8.66s-7.75,3.33-8.33,8.66h16.39Z"/><path class="d" d="M439.03,226.39c0-3.91,3.24-7.16,7.15-7.16s7.25,3.25,7.25,7.16v2h.33c1.66-4,3.9-9.16,8.82-9.16,5.57,0,7.24,4.08,7.24,6.75,0,3.16-2.41,6.58-6.49,6.58-6.91,0-8.83,5.98-8.83,11.99v13.65c0,4.25-3.49,7.74-7.73,7.74s-7.74-3.5-7.74-7.74v-31.8Z"/><path class="d" d="M471.4,256.78c0-4.58,2.09-6.83,6.16-6.83,5.8,0,7.1,6.5,15.15,6.5,3.17,0,5.33-1.25,5.33-4,0-1.66-.75-2.75-4.83-3.58l-5.66-1.17c-10.25-2.08-15.16-6.83-15.16-14.23,0-9.66,8.24-14.74,20.56-14.74,7.83,0,17.82,4,17.82,10.41,0,2.58-2,5-4.83,5-6.07,0-5.07-5.5-13.73-5.5-3,0-5.25,1.42-5.25,3.83,0,1.91,1.5,2.75,5.16,3.5l6.49,1.33c9.99,2.08,14.24,6.83,14.24,14.32,0,9.32-4.91,15.07-20.73,15.07-11.74,0-20.73-3-20.73-9.91Z"/></g></g><g><path class="d" d="M751.26,180.48l-46.94,66.78c-4.49,6.41-11.93,10.24-19.9,10.24s-15.42-3.83-19.9-10.22l-46.96-66.87c-33.68,8.87-55.97,24.25-55.97,41.73,0,27.48,54.92,49.75,122.69,49.75s122.69-22.27,122.69-49.75c0-17.45-22.18-32.79-55.71-41.66Z"/><path class="d" d="M684.28,0c-52.28,0-94.79,38.76-94.79,86.4,0,18.07,5.8,34.52,17.75,50.3l70.93,100.89c1.34,1.91,3.62,3.05,6.1,3.05s4.76-1.14,6.1-3.04l71.22-101.2c11.45-14.74,17.47-32.01,17.47-49.99,0-47.65-42.51-86.4-94.78-86.4Zm-22.91,65.43l-4.47,19.17h-15.12v6.8h3.88c8.08,0,15.06,6.47,16.23,15.06l.21,1.59h-20.32v3.73h19.58l-4.47,19.17h-15.12v8.12h-8.84V31.32h8.84v13.73h3.88c8.08,0,15.06,6.48,16.23,15.06l.21,1.6h-20.32v3.72h19.58Zm74.51,74.11h-8.84v-8.59h-61.18l4.47-19.17h56.71v-27.18h-61.18l4.47-19.17h56.71v-13.89h8.84v88Z"/></g></g></g></g></svg>